<?xml version="1.0" encoding="utf-8"?>
<svg viewBox="0 0 500 500" xmlns="http://www.w3.org/2000/svg">
  <path d="M 227.964 136.019 C 234.799 133.747 241.284 134.809 247.813 136.019 C 254.521 137.262 260.271 138.765 267.661 143.581 C 277.97 150.299 292.557 162.931 303.106 177.135 C 315.155 193.359 328.755 223.546 334.297 237.626 C 337.657 246.164 338.192 249.597 339.022 256.53 C 339.947 264.253 340.377 272.253 339.022 282.05 C 337.337 294.233 332.39 312.502 327.68 324.583 C 323.639 334.949 318.691 343.758 313.503 351.048 C 308.972 357.414 305.713 361.884 298.852 366.643 C 290.099 372.715 275.603 379.861 262.936 382.711 C 250.102 385.599 234.141 384.518 222.293 383.656 C 212.251 382.926 205.963 381.808 195.828 378.93 C 183.094 375.315 164.362 368.708 151.404 361.917 C 139.64 355.752 128.761 349.884 120.686 340.651 C 112.445 331.227 106.069 318.358 102.728 305.679 C 99.278 292.59 100.467 275.108 100.837 263.146 C 101.135 253.519 101.704 246.761 103.673 238.571 C 105.718 230.063 107.734 221.851 113.125 213.051 C 119.708 202.304 132.385 188.445 142.898 179.498 C 152.49 171.334 162.865 164.858 173.143 160.594 C 182.739 156.613 193.366 158.014 202.444 153.978 C 211.661 149.879 219.772 138.742 227.964 136.019 Z" />
</svg>