<?xml version="1.0" encoding="utf-8"?>
<svg viewBox="0 0 500 500" xmlns="http://www.w3.org/2000/svg">
  <path d="M 214.949 119.914 C 224.512 118.119 233.757 118.358 241.414 120.86 C 248.577 123.199 254.35 126.93 259.845 133.619 C 266.9 142.207 274.188 158.328 277.804 171.427 C 281.366 184.335 275.218 205.199 281.584 211.597 C 287.077 217.117 301.362 210.535 309.467 212.542 C 316.72 214.338 322.536 217.908 328.371 221.994 C 334.378 226.201 340.621 231.252 344.911 237.589 C 349.4 244.219 352.724 252.523 354.363 261.219 C 356.142 270.652 356.214 283.772 354.363 292.41 C 352.818 299.622 349.586 305.071 345.857 310.368 C 342.164 315.612 337.913 319.356 332.151 324.073 C 325.112 329.837 315.526 338.709 305.686 342.032 C 295.707 345.402 283.651 345.784 272.605 343.922 C 260.969 341.961 248.583 332.907 237.634 329.744 C 227.942 326.945 220.536 324.776 210.223 325.018 C 198.01 325.305 181.73 332.17 168.635 333.525 C 156.65 334.765 144.94 336.123 134.609 333.525 C 124.699 331.032 113.406 324.88 107.671 318.875 C 102.974 313.956 101.459 308.459 100.11 301.861 C 98.557 294.267 98.637 283.259 100.11 275.396 C 101.436 268.317 103.237 263.597 107.671 256.493 C 113.72 246.803 128.445 229.955 136.499 222.939 C 141.933 218.206 145.858 216.15 150.677 214.432 C 155.165 212.833 162.391 215.721 164.382 212.542 C 166.887 208.542 160.456 196.734 159.656 188.44 C 158.833 179.894 156.95 170.526 159.656 161.975 C 162.599 152.676 169.446 141.94 178.087 135.037 C 187.446 127.561 203.689 122.029 214.949 119.914 Z"/>
</svg>
