<?xml version="1.0" encoding="utf-8"?>
<svg viewBox="39.524 156.268 249.365 220.179" xmlns="http://www.w3.org/2000/svg">
  <path d="M 112.523 146.605 C 115.734 146.084 119.833 146.35 122.92 147.55 C 125.967 148.735 129.142 151.076 130.954 153.693 C 132.748 156.285 134.142 159.834 133.789 163.145 C 133.391 166.879 131.211 172.477 127.646 174.96 C 123.607 177.772 114.371 178.92 109.687 177.796 C 105.795 176.861 102.529 173.856 100.708 170.707 C 98.825 167.451 98.104 161.925 98.818 158.419 C 99.46 155.262 101.713 152.358 104.016 150.385 C 106.294 148.435 109.455 147.102 112.523 146.605 Z M 187.225 152.837 C 191.115 152.387 201.069 154.051 203.766 155.672 C 205.256 156.569 205.054 157.261 205.656 158.981 C 206.683 161.913 209.399 169.185 208.492 173.158 C 207.665 176.776 204.702 180.299 201.403 182.137 C 197.796 184.148 191.332 185.022 187.225 184.028 C 183.372 183.095 179.273 180.149 177.301 176.939 C 175.314 173.704 174.608 168.266 175.41 164.652 C 176.171 161.225 179.341 157.658 181.554 155.672 C 183.337 154.073 184.59 153.142 187.225 152.837 Z M 140.184 209.348 C 143.496 208.778 150.494 208.255 154.362 209.348 C 157.666 210.283 160.446 211.989 162.396 214.547 C 164.527 217.342 166.638 221.968 166.176 225.889 C 165.66 230.282 161.578 237.095 158.142 239.594 C 155.224 241.717 151.6 241.913 147.745 241.484 C 143.11 240.968 135.362 238.896 132.15 235.341 C 129.104 231.97 127.657 225.285 128.369 221.163 C 129.031 217.334 133.171 213.131 135.458 211.239 C 137.071 209.905 137.986 209.727 140.184 209.348 Z M 245.464 210.733 C 249.317 210.137 256.569 210.232 260.587 211.678 C 264.006 212.908 266.942 214.878 268.621 217.822 C 270.499 221.113 271.503 227.275 270.512 231.054 C 269.58 234.605 267.091 238.147 263.423 240.033 C 258.842 242.389 248.62 243.109 243.574 241.924 C 239.614 240.994 236.563 238.454 234.595 235.78 C 232.702 233.209 231.338 229.703 231.759 226.328 C 232.253 222.381 236.164 216.111 238.848 213.568 C 240.871 211.652 242.604 211.176 245.464 210.733 Z M 273.971 154.166 C 276.95 153.723 281.282 153.911 284.368 155.111 C 287.416 156.296 290.73 158.381 292.402 161.255 C 294.219 164.376 294.954 169.901 294.293 173.542 C 293.677 176.929 292.128 180.527 289.094 182.521 C 285.377 184.966 276.477 186.165 272.081 185.357 C 268.607 184.719 265.866 182.994 264.047 180.158 C 261.847 176.73 260.332 169.061 261.211 165.036 C 261.955 161.632 265.051 158.828 267.355 157.002 C 269.366 155.408 271.404 154.548 273.971 154.166 Z M 188.303 251.161 C 190.892 250.639 193.937 250.316 196.81 251.161 C 200.07 252.121 204.599 254.234 206.734 257.305 C 209 260.564 210.284 266.724 209.57 270.538 C 208.915 274.032 206.626 277.53 203.426 279.517 C 199.663 281.853 191.847 283.312 187.358 282.352 C 183.363 281.498 179.406 278.474 177.434 275.263 C 175.447 272.028 174.741 266.59 175.543 262.976 C 176.304 259.55 179.339 255.974 181.687 253.997 C 183.677 252.321 185.882 251.65 188.303 251.161 Z M 101.092 267.979 C 105.008 267.065 111.923 266.636 116.215 267.979 C 120.153 269.211 124.167 271.857 126.139 275.068 C 128.126 278.303 128.832 283.741 128.03 287.355 C 127.269 290.781 125.257 294.335 121.886 296.334 C 117.662 298.839 108.168 300.22 102.982 299.17 C 98.541 298.271 94.245 295.436 92.113 292.081 C 89.956 288.686 89.655 282.425 90.222 278.849 C 90.686 275.931 92.192 273.571 94.003 271.76 C 95.815 269.948 98.051 268.688 101.092 267.979 Z M 240.938 291.564 C 244.684 290.684 251.014 290.272 255.116 291.564 C 258.977 292.781 263.068 295.442 265.04 298.653 C 267.027 301.888 267.733 307.326 266.93 310.94 C 266.17 314.366 264.103 317.924 260.787 319.92 C 256.714 322.37 247.833 323.757 242.828 322.755 C 238.455 321.879 234.091 319.021 231.959 315.666 C 229.802 312.271 229.501 306.011 230.068 302.434 C 230.532 299.516 232.038 297.156 233.849 295.345 C 235.661 293.533 237.953 292.266 240.938 291.564 Z M 143.895 314.581 C 148.175 314.594 158.08 317.107 161.38 320.724 C 164.291 323.915 165.01 330.037 164.216 333.957 C 163.454 337.717 160.493 341.888 157.127 343.881 C 153.54 346.005 146.944 346.679 142.949 345.772 C 139.369 344.959 135.946 342.63 133.97 339.628 C 131.814 336.353 130.421 330.209 131.135 326.395 C 131.789 322.901 134.931 319.393 137.278 317.416 C 139.268 315.741 140.963 314.571 143.895 314.581 Z M 52.098 195.817 C 56.057 194.979 64.865 194.839 69.111 195.817 C 72.256 196.541 74.44 197.284 76.2 199.597 C 78.411 202.504 80.685 209.053 79.981 213.303 C 79.275 217.561 75.169 222.905 71.946 225.117 C 69.193 227.007 66.248 227.188 62.495 227.008 C 57.664 226.775 48.53 225.845 45.009 222.282 C 41.654 218.887 40.618 210.834 41.228 206.686 C 41.724 203.313 44.426 200.484 46.427 198.652 C 48.124 197.098 49.43 196.381 52.098 195.817 Z M 299.738 259.638 C 302.91 258.942 308.319 258.452 312.026 259.638 C 315.721 260.822 319.978 263.517 321.95 266.727 C 323.937 269.962 324.722 275.301 323.841 279.015 C 322.966 282.7 320.321 286.917 316.752 288.939 C 312.663 291.255 304.405 291.98 299.738 290.829 C 295.664 289.824 291.786 286.951 289.814 283.741 C 287.827 280.505 287.122 275.067 287.924 271.453 C 288.684 268.027 291.854 264.459 294.067 262.474 C 295.851 260.874 297.304 260.173 299.738 259.638 Z M 227.761 349.419 C 231.11 348.839 235.692 349.157 239.103 350.365 C 242.453 351.551 245.971 353.452 248.082 356.508 C 250.462 359.953 252.575 366.564 251.863 370.686 C 251.201 374.515 248.064 378.628 244.774 380.61 C 241.361 382.667 235.857 383.496 231.542 382.501 C 226.86 381.421 220.383 377.447 217.836 373.522 C 215.489 369.903 215.378 363.866 215.946 360.289 C 216.409 357.371 217.823 354.999 219.727 353.2 C 221.708 351.328 224.729 349.945 227.761 349.419 Z M 123.374 373.773 C 126.872 373.016 133.805 372.892 137.552 373.773 C 140.536 374.474 142.884 375.137 144.64 377.553 C 146.956 380.74 149.129 388.867 148.421 393.149 C 147.815 396.814 145.537 400.137 142.277 402.128 C 138.358 404.522 130.196 406.007 125.264 404.964 C 120.69 403.996 115.662 400.152 113.449 396.929 C 111.56 394.176 111.015 390.683 111.559 387.478 C 112.163 383.922 115.41 378.879 117.703 376.608 C 119.451 374.876 120.839 374.321 123.374 373.773 Z M 52.629 330.154 C 56.586 329.374 68.215 328.656 73.423 330.154 C 77.443 331.31 80.429 333.37 82.403 336.298 C 84.496 339.403 85.924 344.745 85.238 348.585 C 84.544 352.47 81.334 357.348 78.149 359.455 C 75.115 361.462 70.857 361.155 66.807 361.345 C 62.4 361.552 56.47 361.799 52.629 360.4 C 49.277 359.178 46.407 356.874 44.595 354.256 C 42.801 351.664 41.338 348.179 41.76 344.804 C 42.253 340.858 46.668 334.297 48.849 332.044 C 50.177 330.672 50.537 330.566 52.629 330.154 Z M 33.988 270.412 C 37.943 270.311 46.194 271.673 49.583 275.138 C 53.047 278.678 55.025 287.083 54.309 291.679 C 53.686 295.684 50.346 299.642 47.22 301.603 C 44.167 303.518 39.602 304.226 35.878 303.493 C 31.875 302.706 26.511 299.893 24.064 296.404 C 21.569 292.848 20.461 286.228 21.228 282.227 C 21.912 278.656 25.024 275.224 27.372 273.248 C 29.362 271.572 31.136 270.485 33.988 270.412 Z"/>
</svg>