<?xml version="1.0" encoding="utf-8"?>
<svg viewBox="102.81 143.198 301.852 248.856" xmlns="http://www.w3.org/2000/svg">
  <path d="M 204.098 -54.187 C 217.413 -63.725 240.55 -56.667 244.741 -54.187 C 246.444 -53.179 245.92 -53.069 245.213 -49.934 C 242.562 -38.175 209.305 33.763 200.79 57.817 C 195.75 72.055 191.3 86.223 192.283 88.063 C 192.769 88.971 194.483 85.998 196.537 84.754 C 199.647 82.871 205.248 83.902 210.242 78.138 C 220.089 66.772 236.123 11.612 244.741 2.524 C 248.415 -1.352 250.949 -0.588 254.193 -0.312 C 257.706 -0.012 262.549 1.935 265.062 4.887 C 267.757 8.053 266.737 18.952 269.316 18.592 C 273.241 18.043 283.1 -11.909 289.164 -17.325 C 292.656 -20.443 295.425 -17.3 299.089 -20.161 C 305.192 -24.926 312.792 -45.117 320.355 -50.406 C 326.07 -54.403 333.94 -54.982 338.314 -54.187 C 341.572 -53.595 343.744 -51.986 345.402 -48.989 C 347.709 -44.819 348.519 -35.828 348.238 -29.14 C 347.95 -22.284 346.944 -18.072 343.512 -8.346 C 337.628 8.329 310.346 58.795 309.486 66.323 C 309.264 68.26 310.075 68.665 310.903 68.686 C 312.216 68.72 314.823 64.136 317.52 63.015 C 320.418 61.811 324.938 61.627 327.917 62.07 C 330.484 62.452 331.39 64.718 334.533 64.906 C 339.468 65.2 350.917 59.118 356.272 60.18 C 360.376 60.994 362.952 64.454 365.251 67.269 C 367.478 69.995 369.031 72.234 369.977 76.72 C 371.4 83.467 370.755 100.306 369.977 106.021 C 369.565 109.047 367.794 111.177 368.087 111.692 C 368.255 111.988 368.874 111.505 369.505 111.219 C 370.516 110.761 371.734 110.804 373.758 108.856 C 378.485 104.31 390.747 81.363 397.86 76.248 C 402.318 73.042 406.498 72.893 410.147 73.412 C 413.522 73.892 416.965 76.473 419.126 78.611 C 421.037 80.5 422.17 82.174 422.907 85.227 C 423.946 89.529 423.374 98.373 422.907 103.185 C 422.55 106.864 419.741 111.026 421.017 112.165 C 422.4 113.399 428.165 108.818 431.886 109.329 C 436.019 109.896 441.978 112.311 444.646 116.418 C 447.786 121.25 448.015 132.439 447.482 138.157 C 447.077 142.507 443.365 147.238 443.701 148.554 C 443.852 149.145 444.082 148.977 445.119 149.027 C 448.446 149.187 466.258 144.61 472.529 146.191 C 476.941 147.304 479.398 149.869 481.508 153.28 C 483.952 157.23 484.572 162.702 485.289 169.348 C 486.236 178.125 488.475 186.242 485.289 202.429 C 479.484 231.925 455.786 292.703 436.14 342.316 C 414.328 397.397 387.836 496.119 358.635 518.592 C 340.55 532.51 306.601 522.419 300.506 518.592 C 297.877 516.941 299.891 515.079 300.034 511.503 C 300.295 504.982 305.792 482.436 303.815 479.839 C 302.791 478.496 300.238 480.106 298.143 482.202 C 294.272 486.078 289.498 503.018 284.438 507.25 C 280.898 510.21 276.807 510.78 273.096 510.085 C 269.076 509.333 263.538 505.578 261.281 502.051 C 259.147 498.715 258.596 495.738 259.391 489.764 C 260.814 479.077 278.732 445.285 277.35 439.669 C 276.796 437.423 274.159 437.725 272.151 438.252 C 269.257 439.011 265.186 445.47 261.754 446.758 C 258.895 447.832 255.946 447.565 253.247 446.758 C 250.419 445.912 246.841 443.383 245.213 441.56 C 243.993 440.193 244.476 437.842 243.323 437.306 C 242.06 436.72 240.01 436.587 237.652 438.724 C 232.157 443.704 220.744 475.021 213.55 480.785 C 209.504 484.026 205.802 483.564 202.208 482.675 C 198.373 481.726 193.425 477.92 191.338 474.641 C 189.447 471.669 188.961 468.886 189.448 464.244 C 190.205 457.015 204.487 440.781 199.845 433.998 C 193.991 425.445 161.442 425.842 143.607 424.074 C 127.071 422.435 110.087 413.62 96.348 423.129 C 77.391 436.248 65.691 508.152 50.979 518.592 C 42.819 524.382 31.369 521.098 26.877 516.229 C 21.903 510.837 23.525 497.609 24.987 485.038 C 26.936 468.27 46.38 431.422 42 423.129 C 39.234 417.892 27.254 423.981 21.678 422.184 C 16.837 420.623 12.147 416.723 9.864 414.15 C 8.281 412.366 8.673 408.713 7.501 408.951 C 5.637 409.329 2.972 422.127 -1.006 425.019 C -4.523 427.576 -10.661 427.477 -14.238 426.909 C -17.156 426.446 -19.574 425.724 -21.327 423.129 C -23.839 419.41 -26.569 415.56 -25.108 403.753 C -21.382 373.64 23.749 261.545 39.164 209.046 C 50.75 169.588 54.401 138.535 63.739 111.692 C 71.33 89.869 80.442 64.961 88.786 57.344 C 93.514 53.029 98.963 53.742 102.964 54.509 C 106.535 55.193 109.896 57.854 111.943 60.652 C 114.026 63.499 113.857 71.078 115.251 71.522 C 116.335 71.867 116.913 67.996 119.032 66.796 C 122.034 65.097 129.398 63.34 133.21 63.96 C 136.351 64.472 137.116 70.932 140.771 68.686 C 151.712 61.965 182.371 -38.624 204.098 -54.187 Z M 421.017 112.165 L 421.017 113.11 Z M 355.799 441.087 C 354.055 441.463 351.818 448.145 349.183 450.539 C 346.722 452.775 342.944 451.688 340.677 455.265 C 336.868 461.274 334.337 483.799 334.06 490.236 C 333.927 493.341 333.883 496.53 335.005 495.908 C 337.817 494.348 358.644 450.406 358.635 443.923 C 358.632 441.682 356.943 440.841 355.799 441.087 Z M 334.06 496.853 L 334.06 497.798 Z"/>
</svg>
