<?xml version="1.0" encoding="utf-8"?>
<svg viewBox="0 0 500 500" xmlns="http://www.w3.org/2000/svg">
  <path d="M 131.733 137.035 C 139.513 135.2 144.333 135.526 150.636 137.98 C 158.037 140.861 164.997 146.644 172.848 155.466 C 183.794 167.764 195.116 208.974 208.292 209.813 C 221.692 210.667 238.476 170.093 252.716 158.774 C 263.77 149.986 272.531 145.664 284.852 142.706 C 298.601 139.404 321.069 138.467 332.111 141.761 C 340.076 144.136 343.838 147.522 348.652 154.52 C 355.373 164.292 361.656 183.36 364.72 199.889 C 368.035 217.776 369.33 242.451 366.61 258.49 C 364.404 271.502 360.282 279.571 353.377 290.626 C 345.125 303.841 331.97 317.186 317.933 331.742 C 301.575 348.703 272.796 371.906 259.805 386.089 C 251.127 395.563 248.69 403.531 242.319 409.246 C 236.747 414.244 229.381 418.181 224.36 419.643 C 220.695 420.711 217.903 420.584 214.909 419.643 C 211.741 418.648 207.89 414.768 205.929 413.5 C 204.798 412.767 205.103 412.94 203.566 412.082 C 199.461 409.79 184.402 403.44 175.211 396.959 C 165.299 389.97 153.172 377.65 146.383 370.967 C 141.777 366.432 139.054 362.537 136.459 360.097 C 134.722 358.465 134.411 358.87 132.205 356.789 C 127.415 352.268 114.983 340.608 106.686 329.379 C 96.945 316.195 84.984 297.442 78.33 281.175 C 72.087 265.912 68.958 249.226 66.988 234.861 C 65.229 222.033 64.74 209.133 66.043 198.944 C 67.127 190.461 69.037 183.834 72.659 177.205 C 76.37 170.413 80.578 164.631 88.255 158.774 C 98.41 151.025 120.386 139.71 131.733 137.035 Z"/>
</svg>