<?xml version="1.0" encoding="utf-8"?>
<svg viewBox="99.827 144.177 301.756 272.839" xmlns="http://www.w3.org/2000/svg">
  <path d="M 213.746 88.229 C 216.393 87.63 220.228 87.176 223.197 88.229 C 226.402 89.365 230.364 92.25 232.177 95.318 C 233.992 98.391 235.31 102.185 234.067 106.66 C 232.248 113.207 220.92 125.936 216.581 130.762 C 214.01 133.621 212.728 133.738 210.437 135.96 C 207.522 138.79 204.012 143.498 200.513 146.83 C 197.074 150.105 191.489 154.161 189.644 155.809 C 188.798 156.564 189.229 156.274 188.226 157.227 C 185.157 160.14 172.522 170.979 164.124 179.439 C 154.662 188.969 143.885 202.842 134.35 212.047 C 126.018 220.092 117.953 224.723 110.248 232.369 C 102.167 240.388 94.078 254.845 87.092 259.306 C 82.342 262.339 77.672 262.856 73.859 262.142 C 70.364 261.487 66.856 259 64.88 255.998 C 62.724 252.723 61.477 246.607 62.044 242.766 C 62.554 239.312 65.448 235.898 67.243 233.786 C 68.624 232.162 70.183 231.777 71.496 230.478 C 72.871 229.118 73.395 228.12 75.277 225.752 C 78.643 221.516 84.203 212.767 91.345 205.431 C 100.428 196.101 116.522 185.135 127.262 174.713 C 137.323 164.949 144.46 154.559 154.199 144.939 C 164.258 135.005 177.489 125.58 186.808 116.111 C 195.135 107.65 203.251 95.115 208.075 91.064 C 210.572 88.966 211.489 88.739 213.746 88.229 Z M 306.458 84.836 C 311.113 84.592 320.03 88.182 322.999 91.924 C 325.635 95.248 325.936 99.707 324.889 105.157 C 323.372 113.056 315.439 126.423 309.766 135.403 C 304.485 143.762 295.572 154.364 292.28 157.614 C 290.868 159.009 291.52 157.956 289.445 159.505 C 281.891 165.141 237.711 198.709 221.865 212.907 C 211.013 222.631 207.824 228.605 198.708 237.01 C 188.14 246.751 175.804 252.645 161.373 267.728 C 140.486 289.559 100.632 352.215 86.231 363.664 C 80.374 368.32 77.823 367.86 73.944 367.444 C 70.109 367.034 65.365 364.442 63.074 361.301 C 60.708 358.056 59.561 352.126 60.239 348.068 C 60.9 344.109 65.004 339.043 66.855 337.199 C 67.917 336.141 68.91 336.473 69.691 335.781 C 70.495 335.068 69.922 335.18 71.581 332.945 C 78.486 323.64 133.295 250.895 145.778 237.955 C 150.595 232.96 153.139 232.872 154.757 231.338 C 155.627 230.514 155.052 230.512 156.175 229.448 C 159.343 226.445 178.072 212.751 181.222 210.072 C 182.266 209.184 181.601 209.714 182.64 208.654 C 186.239 204.984 200.611 188.267 213.831 176.518 C 230.571 161.64 264.186 142.826 277.63 126.896 C 287.62 115.059 291.795 96.321 294.643 92.397 C 295.576 91.111 295.518 91.662 296.534 90.979 C 298.458 89.686 302.543 85.04 306.458 84.836 Z M 421.412 36.952 C 425.393 37.148 434.172 40.362 437.007 44.041 C 439.575 47.373 440.757 51.935 438.898 57.274 C 435.933 65.785 421.513 78.986 411.015 89.882 C 399.663 101.666 387.007 109.818 372.735 125.327 C 354.058 145.623 315.696 198.494 308.936 205.194 C 307.342 206.773 307.308 205.922 306.573 206.612 C 305.713 207.418 304.906 209.089 304.21 209.92 C 303.685 210.547 303.506 210.693 302.792 211.338 C 301.588 212.424 298.671 214.471 297.121 216.064 C 295.754 217.468 294.874 219.353 293.813 220.317 C 293.001 221.055 292.725 220.509 291.45 221.735 C 287.926 225.122 275.449 239.601 269.711 249.145 C 264.25 258.228 261.459 271.315 257.423 277.501 C 254.718 281.646 253.01 282.086 249.389 285.535 C 244.042 290.627 234.895 297.214 227.177 305.856 C 217.724 316.442 208.677 333.293 197.404 346.026 C 185.766 359.172 162.333 379.34 158.179 383.361 C 157.068 384.436 158.1 383.846 156.762 384.778 C 151.156 388.684 107.131 415.834 94.38 420.695 C 87.877 423.174 84.954 423.441 81.147 422.586 C 77.642 421.798 74.013 419.524 72.168 416.442 C 70.109 413.003 69.153 406.344 70.278 402.264 C 71.353 398.366 73.026 396.492 78.312 392.34 C 88.866 384.049 135.432 361.706 141.166 357.368 C 142.629 356.262 141.56 356.662 142.584 355.478 C 145.504 352.103 158.482 337.636 164.796 331.848 C 169.495 327.54 172.407 327.478 177.083 322.397 C 184.233 314.625 199.036 289.601 202.603 285.535 C 203.702 284.282 203.294 285.171 204.493 284.117 C 208.035 281.002 222.241 269.746 230.013 259.542 C 238.837 247.958 243.515 230.688 253.643 217.009 C 264.569 202.251 279.388 191.679 294.285 174.476 C 312.573 153.357 348.171 104.671 355.249 97.444 C 357.094 95.56 356.329 96.991 358.085 95.554 C 363.151 91.406 389.625 66.642 393.529 62.945 C 394.624 61.908 394.02 62.509 394.947 61.527 C 397.663 58.651 409.927 43.475 414.796 39.788 C 417.567 37.689 418.598 36.814 421.412 36.952 Z M 414.36 133.173 C 418.603 133.108 425.155 135.225 428.065 138.371 C 430.902 141.439 433.05 144.918 431.846 151.604 C 429.47 164.798 407.59 201.021 395.929 217.766 C 386.921 230.701 380.443 233.414 369.464 247.067 C 353.03 267.503 321.454 317.131 305.664 334.496 C 296.358 344.731 292.501 344.108 283.453 352.927 C 270.151 365.891 246.187 396.201 232.885 409.165 C 223.837 417.984 218.268 420.165 210.674 427.596 C 201.946 436.136 188.025 454.306 183.736 458.315 C 182.148 459.799 182.489 459.001 180.901 460.205 C 177.236 462.981 162.792 474.407 159.634 477.691 C 158.265 479.114 158.787 479.056 157.744 480.526 C 155.702 483.402 150.984 492.337 146.874 495.177 C 143.434 497.553 139.115 498.363 135.532 498.012 C 132.036 497.67 127.886 496.136 125.608 493.286 C 123.018 490.048 120.444 484.36 121.827 478.636 C 123.808 470.437 135.723 457.605 144.039 448.863 C 152.15 440.334 163.612 434.051 170.976 426.651 C 177.406 420.189 184.233 409.95 186.572 407.275 C 187.426 406.298 186.943 406.809 187.989 405.857 C 191.318 402.829 210.868 386.373 215.4 382.228 C 217.399 380.399 216.737 381.063 218.708 378.919 C 223.746 373.438 245.775 346.929 250.844 342.057 C 252.718 340.256 252.671 341.095 254.152 339.694 C 256.842 337.15 261.239 330.67 265.967 325.989 C 271.388 320.623 278.607 316.863 285.343 309.449 C 293.877 300.055 308.999 276.166 312.281 272.114 C 313.218 270.957 312.688 271.935 313.698 270.696 C 317.731 265.748 345.556 225.285 351.506 219.184 C 353.556 217.081 354.14 217.862 355.286 216.821 C 356.522 215.698 357.731 213.558 358.594 212.568 C 359.176 211.901 359.035 212.531 360.012 211.15 C 364.388 204.964 393.48 147.911 403.49 137.899 C 408.039 133.35 410.462 133.232 414.36 133.173 Z M 436.18 253.435 C 440.7 253.488 448.919 256.754 451.776 260.524 C 454.433 264.032 455.326 268.757 453.666 274.702 C 451.042 284.1 435.823 304.212 428.619 312.036 C 423.868 317.196 418.274 318.997 415.859 321.488 C 414.406 322.987 414.465 324.234 413.496 325.269 C 412.562 326.266 412.082 325.815 410.188 327.632 C 404.982 332.623 388.363 353.88 376.634 365.911 C 365.036 377.809 351.111 388.347 340.245 399.465 C 330.181 409.762 323.825 419.651 313.307 430.184 C 301.412 442.096 281.941 461.495 271.719 467.046 C 265.753 470.285 261.542 470.648 257.541 469.881 C 253.971 469.197 250.533 466.586 248.562 463.737 C 246.534 460.805 245.306 455.966 245.727 452.395 C 246.14 448.885 249.034 444.827 250.925 442.471 C 252.404 440.629 253.547 440.483 255.651 438.69 C 258.933 435.892 267.214 428.649 269.356 426.403 C 270.298 425.415 269.63 425.676 270.774 424.513 C 274.304 420.923 297.042 401.732 300.547 398.52 C 301.611 397.545 301.011 398.17 301.965 397.102 C 305.067 393.63 320.414 373.897 326.539 367.802 C 330.319 364.041 333.904 362.456 335.519 360.713 C 336.433 359.727 335.726 359.741 336.936 358.35 C 340.492 354.263 356.967 340.484 366.71 330.467 C 376.83 320.062 388.655 304.236 396.483 296.913 C 401.65 292.08 405.017 292.338 409.243 287.461 C 414.965 280.859 420.879 263.472 426.256 258.161 C 429.684 254.775 432.396 253.391 436.18 253.435 Z M 428.874 367.053 C 432.542 365.782 435.417 366.193 438.325 367.053 C 441.248 367.917 444.542 369.475 446.359 372.251 C 448.503 375.526 450.046 382.316 449.195 386.429 C 448.4 390.272 445.741 392.507 442.106 396.354 C 436.791 401.977 424.342 410.185 418.004 416.675 C 412.736 422.069 408.375 429.919 405.717 432.27 C 404.44 433.399 403.597 433.03 402.881 433.688 C 402.204 434.31 402.125 435.363 401.463 436.051 C 400.743 436.8 400.235 436.37 398.628 437.941 C 394.01 442.457 376.749 469.535 368.382 474.803 C 363.351 477.971 358.956 477.549 355.15 476.694 C 351.644 475.906 348.139 473.224 346.17 470.55 C 344.277 467.979 342.364 465.539 343.335 461.098 C 345.111 452.973 364.417 427.869 367.91 423.764 C 368.987 422.497 368.499 423.562 369.8 422.346 C 374.486 417.967 399.105 389.79 409.97 380.285 C 417.476 373.719 423.631 368.869 428.874 367.053 Z"/>
</svg>
